<svg width="24" height="26" viewBox="0 0 24 26" fill="none" xmlns="http://www.w3.org/2000/svg">
<g style="mix-blend-mode:plus-darker">
<path d="M1.19531 16.5703C0.859375 16.5703 0.574219 16.4531 0.339844 16.2188C0.113281 15.9844 0 15.6992 0 15.3633V10.4883C0 10.1523 0.113281 9.86719 0.339844 9.63281C0.574219 9.39062 0.859375 9.26953 1.19531 9.26953C1.53125 9.26953 1.81641 9.39062 2.05078 9.63281C2.29297 9.86719 2.41406 10.1523 2.41406 10.4883V15.3633C2.41406 15.6992 2.29297 15.9844 2.05078 16.2188C1.81641 16.4531 1.53125 16.5703 1.19531 16.5703ZM5.39062 21.5859C5.05469 21.5859 4.76953 21.4688 4.53516 21.2344C4.30859 21 4.19531 20.7148 4.19531 20.3789V5.47266C4.19531 5.12891 4.30859 4.83984 4.53516 4.60547C4.76953 4.37109 5.05469 4.25391 5.39062 4.25391C5.73438 4.25391 6.02344 4.37109 6.25781 4.60547C6.49219 4.83984 6.60938 5.12891 6.60938 5.47266V20.3789C6.60938 20.7148 6.49219 21 6.25781 21.2344C6.02344 21.4688 5.73438 21.5859 5.39062 21.5859ZM9.58594 25.8516C9.25 25.8516 8.96484 25.7344 8.73047 25.5C8.50391 25.2656 8.39062 24.9805 8.39062 24.6445V1.20703C8.39062 0.871094 8.50391 0.585938 8.73047 0.351562C8.96484 0.117188 9.25 0 9.58594 0C9.92969 0 10.2188 0.117188 10.4531 0.351562C10.6875 0.585938 10.8047 0.871094 10.8047 1.20703V24.6445C10.8047 24.9805 10.6875 25.2656 10.4531 25.5C10.2188 25.7344 9.92969 25.8516 9.58594 25.8516ZM13.7812 19.9102C13.4453 19.9102 13.1602 19.793 12.9258 19.5586C12.6992 19.3242 12.5859 19.0391 12.5859 18.7031V7.14844C12.5859 6.8125 12.6992 6.52734 12.9258 6.29297C13.1602 6.05078 13.4453 5.92969 13.7812 5.92969C14.1172 5.92969 14.4023 6.05078 14.6367 6.29297C14.8789 6.52734 15 6.8125 15 7.14844V18.7031C15 19.0391 14.8789 19.3242 14.6367 19.5586C14.4023 19.793 14.1172 19.9102 13.7812 19.9102ZM17.9883 23.2969C17.6445 23.2969 17.3555 23.1797 17.1211 22.9453C16.8945 22.7109 16.7812 22.4258 16.7812 22.0898V3.76172C16.7812 3.42578 16.8945 3.14062 17.1211 2.90625C17.3555 2.67188 17.6445 2.55469 17.9883 2.55469C18.3242 2.55469 18.6094 2.67188 18.8438 2.90625C19.0781 3.14062 19.1953 3.42578 19.1953 3.76172V22.0898C19.1953 22.4258 19.0781 22.7109 18.8438 22.9453C18.6094 23.1797 18.3242 23.2969 17.9883 23.2969ZM22.1719 17.7422C21.8359 17.7422 21.5508 17.625 21.3164 17.3906C21.0898 17.1562 20.9766 16.875 20.9766 16.5469V9.30469C20.9766 8.97656 21.0898 8.69531 21.3164 8.46094C21.5508 8.21875 21.8359 8.09766 22.1719 8.09766C22.5156 8.09766 22.8047 8.21875 23.0391 8.46094C23.2734 8.69531 23.3906 8.97656 23.3906 9.30469V16.5469C23.3906 16.875 23.2734 17.1562 23.0391 17.3906C22.8047 17.625 22.5156 17.7422 22.1719 17.7422Z" fill="#C81328"/>
</g>
</svg>
